<?xml version="1.0" encoding="UTF-8"?>
<!DOCTYPE svg PUBLIC "-//W3C//DTD SVG 1.1//EN" "http://www.w3.org/Graphics/SVG/1.1/DTD/svg11.dtd">
<!-- Creator: CorelDRAW 2021 (64-Bit Not for commercial use) -->
<svg xmlns="http://www.w3.org/2000/svg" xml:space="preserve" width="3.99587in" height="4.00104in" version="1.1" style="shape-rendering:geometricPrecision; text-rendering:geometricPrecision; image-rendering:optimizeQuality; fill-rule:evenodd; clip-rule:evenodd"
viewBox="0 0 3991.74 3996.91"
 xmlns:xlink="http://www.w3.org/1999/xlink"
 xmlns:xodm="http://www.corel.com/coreldraw/odm/2003">
 <g id="Layer_x0020_1">
  <metadata id="CorelCorpID_0Corel-Layer"/>
  <path class="fil0" d="M3751.33 1586.9l-158.17 0c-129.03,0 -237.25,-111.34 -237.25,-243.5 0,-66.6 28.1,-126.95 78.05,-171.7l101.98 -99.9c100.94,-99.9 100.94,-263.27 0,-363.17l-232.05 -229.97c-45.79,-45.79 -113.43,-72.84 -182.1,-72.84 -68.68,0 -135.28,27.05 -182.1,72.84l-97.82 97.82c-46.83,52.03 -109.26,80.13 -176.9,80.13 -133.2,0 -244.54,-108.22 -244.54,-236.21l0 -159.21c0,-140.48 -113.43,-261.19 -254.95,-261.19l-316.34 0c-141.52,0 -253.9,119.67 -253.9,261.19l0 158.17c0,127.99 -111.34,236.21 -244.54,236.21 -66.6,0 -127.99,-28.1 -172.74,-77l-100.94 -99.9c-45.79,-46.83 -113.43,-72.84 -182.1,-72.84 -68.68,0 -135.28,27.05 -182.1,72.84l-234.14 228.93c-99.9,99.9 -99.9,263.27 0,362.13l97.82 97.82c52.03,46.83 81.17,109.26 81.17,175.86 0,133.2 -108.22,243.5 -237.25,243.5l-158.17 -0c-142.56,0 -262.23,111.34 -262.23,252.86l0 158.17 0 158.17c0,140.48 119.67,252.86 262.23,252.86l158.17 -0c129.03,0 237.25,111.34 237.25,243.5 0,66.6 -29.14,129.03 -81.17,175.86l-97.82 96.77c-99.9,99.9 -99.9,263.27 0,362.13l232.05 231.01c45.79,46.83 113.43,72.84 182.1,72.84 68.68,0 135.28,-27.05 182.1,-72.84l100.94 -99.9c43.71,-48.91 106.14,-77 172.74,-77 133.2,0 244.54,108.22 244.54,236.21l0 158.17c0,140.48 112.38,261.19 254.95,261.19l316.34 0c141.52,0 253.9,-119.67 253.9,-261.19l0 -158.17c0,-127.99 111.34,-236.21 244.54,-236.21 66.6,0 129.03,29.14 176.9,80.13l97.82 97.82c46.83,45.79 113.43,72.84 182.1,72.84 68.68,0 135.28,-27.05 182.1,-72.84l232.05 -231.01c99.9,-99.9 99.9,-263.27 0,-363.17l-101.98 -99.9c-49.95,-44.75 -78.05,-106.14 -78.05,-171.7 0,-133.2 108.22,-243.5 237.25,-243.5l158.18 0c141.52,0 242.46,-111.34 242.46,-252.86l0 -159.21 0 -158.17c2.08,-141.52 -98.86,-252.86 -240.38,-252.86zm-912.6 411.03l0 0c0,458.9 -371.49,832.47 -832.47,832.47 -460.98,0 -832.47,-373.57 -832.47,-832.47l0 0 0 0c0,-458.9 371.49,-832.47 832.47,-832.47 460.98,0 832.47,373.57 832.47,832.47l0 0z"/>
 </g>
</svg>
